<svg width="24" height="24" viewBox="0 0 24 24" fill="none" xmlns="http://www.w3.org/2000/svg">
<path d="M10.3859 13.0868C11.1379 10.4684 12.901 10.9092 13.5988 13.1305C13.8961 13.8928 14.2193 14.6373 14.5527 15.2668C15.0853 16.2726 15.8524 17.3785 16.6356 18.4029C17.5113 19.5483 16.476 21.3702 15.083 21.085C13.8072 20.8239 12.6216 20.6059 12.0539 20.5678C11.4835 20.5295 10.289 20.7291 9.00596 20.9969C7.61403 21.2875 6.52862 19.4864 7.38358 18.3245C8.12554 17.3162 8.85452 16.238 9.37675 15.2668C9.72273 14.6234 10.0662 13.863 10.3859 13.0868Z" stroke="#084236" stroke-width="2"/>
<path d="M18.4113 7.07696C18.1789 8.36064 16.9498 9.21287 15.6661 8.98046C14.3825 8.74805 13.5302 7.51901 13.7626 6.23532C13.995 4.95164 15.3624 3.18358 16.6461 3.416C17.9298 3.64841 18.6437 5.79327 18.4113 7.07696Z" stroke="#084236" stroke-width="2"/>
<path d="M10.4479 6.26355C10.5837 7.56102 9.64198 8.72292 8.34451 8.85874C7.04705 8.99455 5.88514 8.05284 5.74933 6.75538C5.61352 5.45791 6.2583 3.40279 7.55576 3.26697C8.85323 3.13116 10.3121 4.96609 10.4479 6.26355Z" stroke="#084236" stroke-width="2"/>
<path d="M6.13091 13.138C6.3224 14.4284 5.43153 15.6297 4.1411 15.8212C2.85068 16.0127 1.64935 15.1218 1.45786 13.8314C1.26638 12.541 2.0461 10.5906 3.33652 10.3991C4.62695 10.2076 5.93942 11.8475 6.13091 13.138Z" stroke="#084236" stroke-width="2"/>
<path d="M22.6868 13.6302C22.5559 14.9281 21.3976 15.8742 20.0996 15.7433C18.8016 15.6123 17.8555 14.454 17.9865 13.156C18.1174 11.858 19.3518 10.1586 20.6497 10.2895C21.9477 10.4204 22.8178 12.3322 22.6868 13.6302Z" stroke="#084236" stroke-width="2"/>
</svg>
